<?xml version="1.0" encoding="UTF-8" standalone="no"?>
<!-- Created with Inkscape (http://www.inkscape.org/) -->

<svg
   xmlns:svg="http://www.w3.org/2000/svg"
   xmlns="http://www.w3.org/2000/svg"
   version="1.1"
   width="64"
   height="64"
   id="svg5326">
  <defs
     id="defs5328" />
  <g
     id="layer1">
    <path
       d="M 50.25,33.17 C 50.25,44.22 41.29,53.17 30.25,53.17 19.2,53.17 10.25,44.22 10.25,33.17 10.25,22.13 19.2,13.17 30.25,13.17 41.29,13.17 50.25,22.13 50.25,33.17 z"
       id="path2382"
       style="fill:none;stroke:#000000;stroke-width:8;stroke-linecap:round;stroke-linejoin:round;stroke-miterlimit:4;stroke-opacity:1;stroke-dashoffset:0" />
    <path
       d="M 20.59,5.783 4.203,17.26 C 1.669,13.64 3.282,8.134 7.806,4.966 12.33,1.798 18.05,2.164 20.59,5.783 z"
       id="path3587"
       style="fill:#000000;fill-opacity:1;fill-rule:nonzero;stroke:none" />
    <path
       d="M 56,17.26 39.61,5.783 C 42.15,2.164 47.87,1.798 52.39,4.966 56.92,8.134 58.53,13.64 56,17.26 z"
       id="path3590"
       style="fill:#000000;fill-opacity:1;fill-rule:nonzero;stroke:none" />
    <path
       d="M 14,60 20,52"
       id="path3592"
       style="fill:none;stroke:#000000;stroke-width:8;stroke-linecap:round;stroke-linejoin:miter;stroke-miterlimit:4;stroke-opacity:1;stroke-dasharray:none" />
    <path
       d="M 48,60 42,52"
       id="path3594"
       style="fill:none;stroke:#000000;stroke-width:8;stroke-linecap:round;stroke-linejoin:miter;stroke-miterlimit:4;stroke-opacity:1;stroke-dasharray:none" />
    <path
       d="M 30,22 30,34 38,34"
       id="path3596"
       style="fill:none;stroke:#000000;stroke-width:4;stroke-linecap:round;stroke-linejoin:miter;stroke-miterlimit:4;stroke-opacity:1;stroke-dasharray:none" />
  </g>
</svg>
