<?xml version="1.0" encoding="UTF-8" standalone="no"?>
<!-- Created with Inkscape (http://www.inkscape.org/) -->

<svg
   xmlns:svg="http://www.w3.org/2000/svg"
   xmlns="http://www.w3.org/2000/svg"
   version="1.1"
   width="64"
   height="64"
   id="svg5326">
  <defs
     id="defs5328" />
  <g
     id="layer1">
    <path
       d="M 17.03,17.84 C 16.7,17.82 16.35,17.87 16,18 9.288,20.55 6.947,30.9 8,38 9.251,46.45 15.48,57.53 24,58 25.88,58.1 26.26,56.72 28,56 30.46,54.98 33.54,54.98 36,56 37.74,56.72 38.12,58.1 40,58 45.68,57.69 50.31,52.64 53.16,46.81 47.64,46.54 43.22,41.55 43.22,35.41 43.22,29.08 46.65,24 52.3,22.08 52.4,22.05 52.51,22.11 52.61,22.11 51.26,19.36 50.64,19.01 48,18 45.21,16.94 38.9,19.99 36,20.67 30.81,21.9 33.19,21.9 28,20.67 25.46,20.07 19.38,17.98 17.03,17.84 z"
       id="path2818"
       style="fill:#000000;stroke:#000000;stroke-width:4;stroke-linecap:round;stroke-linejoin:round;stroke-miterlimit:4;stroke-opacity:1;stroke-dasharray:none" />
    <path
       d="M 42.03,1.879 C 42.03,1.879 35.78,4.651 34.23,6.232 32.73,7.765 32,16 32,16 32,16 38.49,11.9 40,10.41 41.53,8.893 42.03,1.879 42.03,1.879 z"
       id="path3599"
       style="fill:#000000;stroke:#000000;stroke-width:2;stroke-linecap:round;stroke-linejoin:round;stroke-miterlimit:4;stroke-opacity:1;stroke-dasharray:none" />
  </g>
</svg>
