<?xml version="1.0" encoding="UTF-8" standalone="no"?>
<!-- Created with Inkscape (http://www.inkscape.org/) -->

<svg
   xmlns:svg="http://www.w3.org/2000/svg"
   xmlns="http://www.w3.org/2000/svg"
   version="1.0"
   width="64"
   height="64"
   id="svg4729">
  <defs
     id="defs4731" />
  <g
     id="icon">
    <g
       id="text2835"
       style="font-size:28px;font-style:normal;font-variant:normal;font-weight:normal;font-stretch:normal;text-align:end;text-anchor:end;fill:#000000;fill-opacity:1;stroke:none;font-family:Serif;-inkscape-font-specification:Serif" />
    <path
       d="M 32,4 C 16.54,4 4,16.54 4,32 4,47.46 16.54,60 32,60 35.87,60 39.55,59.22 42.91,57.81 44.58,57.1 46.2,56.21 47.71,55.19 L 44.31,50.25 C 43.13,51.04 41.88,51.72 40.57,52.27 37.93,53.39 35.04,54 32,54 19.85,54 10,44.15 10,32 10,19.85 19.85,10 32,10 44.15,10 54,19.85 54,32 54,35.04 54.01,38 50.28,40.56 47.39,42 46,42 44,39.78 L 44,32 44,18 38,18 38,20.53 C 35.73,18.94 32.98,18 30,18 22.27,18 16,24.27 16,32 16,39.73 22.27,46 30,46 33.11,46 35.96,44.96 38.28,43.25 42,46 43.94,46 47.38,46 50,46 51.83,46 55.81,42.91 58.01,40.25 60,35.87 60,32 60,16.54 47.46,4 32,4 z M 30,24 C 34.42,24 38,27.58 38,32 38,36.42 34.42,40 30,40 25.58,40 22,36.42 22,32 22,27.58 25.58,24 30,24 z"
       id="rect2839"
       style="fill:#000000;fill-opacity:1;fill-rule:nonzero;stroke:none" />
  </g>
</svg>
