<?xml version="1.0" encoding="UTF-8" standalone="no"?>
<!-- Created with Inkscape (http://www.inkscape.org/) -->

<svg
   xmlns:svg="http://www.w3.org/2000/svg"
   xmlns="http://www.w3.org/2000/svg"
   version="1.0"
   width="64"
   height="64"
   id="svg4729">
  <defs
     id="defs4731" />
  <g
     id="icon">
    <path
       d="M 28.94,5 C 26,5 22,9 20,15.94 L 18,30.06 16,33 C 12.68,33 10,35.68 10,39 10,42.32 12.68,45 16,45 L 48,45 C 51.32,45 54,42.32 54,39 54,35.68 51.32,33 48,33 L 46,30.06 44,15.94 C 42,9 38,5 35.06,5 L 28.94,5 z"
       id="rect2381"
       style="fill:#000000;fill-opacity:1;stroke:#000000;stroke-width:4;stroke-linecap:round;stroke-linejoin:round;stroke-miterlimit:4;stroke-opacity:1;stroke-dasharray:none" />
    <path
       d="M 40,56 C 40,58.21 36.87,60 33,60 29.13,60 26,58.21 26,56 26,53.79 29.13,52 33,52 36.87,52 40,53.79 40,56 z"
       id="path2389"
       style="fill:#000000;fill-opacity:1;stroke:#000000;stroke-width:4;stroke-linecap:round;stroke-linejoin:round;stroke-miterlimit:4;stroke-opacity:1" />
  </g>
</svg>
