<?xml version="1.0" encoding="UTF-8" standalone="no"?>
<!-- Created with Inkscape (http://www.inkscape.org/) -->

<svg
   xmlns:svg="http://www.w3.org/2000/svg"
   xmlns="http://www.w3.org/2000/svg"
   version="1.1"
   width="64"
   height="64"
   id="svg5326">
  <defs
     id="defs5328" />
  <g
     id="layer1">
    <path
       d="M 44,32 C 44,38.63 38.62,44 32,44 25.37,44 20,38.63 20,32 20,25.37 25.37,20 32,20 38.62,20 44,25.37 44,32 z"
       id="path2819"
       style="fill:#000000;fill-opacity:1;fill-rule:nonzero;stroke:none" />
    <path
       d="M 32,0 C 34.22,0 36,1.784 36,4 L 36,12 C 36,14.22 34.22,16 32,16 29.78,16 28,14.22 28,12 L 28,4 C 28,1.784 29.78,0 32,0 z"
       id="rect3625"
       style="fill:#000000;fill-opacity:1;fill-rule:nonzero;stroke:none" />
    <path
       d="M 32,48 C 34.22,48 36,49.78 36,52 L 36,60 C 36,62.22 34.22,64 32,64 29.78,64 28,62.22 28,60 L 28,52 C 28,49.78 29.78,48 32,48 z"
       id="rect3627"
       style="fill:#000000;fill-opacity:1;fill-rule:nonzero;stroke:none" />
    <path
       d="M 64,32 C 64,34.22 62.22,36 60,36 L 52,36 C 49.78,36 48,34.22 48,32 48,29.78 49.78,28 52,28 L 60,28 C 62.22,28 64,29.78 64,32 z"
       id="rect3629"
       style="fill:#000000;fill-opacity:1;fill-rule:nonzero;stroke:none" />
    <path
       d="M 16,32 C 16,34.22 14.22,36 12,36 L 4,36 C 1.784,36 0,34.22 0,32 0,29.78 1.784,28 4,28 L 12,28 C 14.22,28 16,29.78 16,32 z"
       id="rect3631"
       style="fill:#000000;fill-opacity:1;fill-rule:nonzero;stroke:none" />
    <path
       d="M 54.62,9.369 C 56.19,10.94 56.19,13.46 54.62,15.03 L 48.97,20.68 C 47.4,22.25 44.88,22.25 43.31,20.68 41.75,19.12 41.74,16.6 43.31,15.03 L 48.97,9.369 C 50.54,7.799 53.06,7.806 54.62,9.369 z"
       id="rect3643"
       style="fill:#000000;fill-opacity:1;fill-rule:nonzero;stroke:none" />
    <path
       d="M 20.68,43.31 C 22.25,44.88 22.25,47.4 20.68,48.97 L 15.03,54.62 C 13.46,56.19 10.94,56.19 9.369,54.62 7.806,53.06 7.799,50.54 9.369,48.97 L 15.03,43.31 C 16.6,41.74 19.12,41.75 20.68,43.31 z"
       id="rect3645"
       style="fill:#000000;fill-opacity:1;fill-rule:nonzero;stroke:none" />
    <path
       d="M 9.369,9.369 C 7.802,10.94 7.806,13.46 9.369,15.03 L 15.03,20.68 C 16.6,22.25 19.12,22.25 20.68,20.68 22.25,19.12 22.25,16.6 20.68,15.03 L 15.03,9.369 C 13.46,7.806 10.94,7.802 9.369,9.369 z"
       id="rect3653"
       style="fill:#000000;fill-opacity:1;fill-rule:nonzero;stroke:none" />
    <path
       d="M 43.31,43.31 C 41.74,44.88 41.75,47.4 43.31,48.97 L 48.97,54.62 C 50.54,56.19 53.06,56.19 54.62,54.62 56.19,53.06 56.19,50.54 54.62,48.97 L 48.97,43.31 C 47.4,41.75 44.88,41.74 43.31,43.31 z"
       id="rect3655"
       style="fill:#000000;fill-opacity:1;fill-rule:nonzero;stroke:none" />
  </g>
</svg>
