<?xml version="1.0" encoding="UTF-8" standalone="no"?>
<!-- Created with Inkscape (http://www.inkscape.org/) -->

<svg
   xmlns:svg="http://www.w3.org/2000/svg"
   xmlns="http://www.w3.org/2000/svg"
   version="1.0"
   width="64"
   height="64"
   id="svg4729">
  <defs
     id="defs4731" />
  <g
     id="icon">
    <path
       d="M 30,4 C 20.06,4 12,12.06 12,22 12,29.83 17.02,36.46 24,38.94 L 24,54 C 24,57.32 26.68,60 30,60 33.32,60 36,57.32 36,54 L 36,38.94 C 42.98,36.46 48,29.83 48,22 48,12.06 39.94,4 30,4 z"
       id="path3292"
       style="fill:none;stroke:#000000;stroke-width:4;stroke-linecap:round;stroke-linejoin:round;stroke-miterlimit:4;stroke-opacity:1;stroke-dasharray:none" />
    <path
       d="M 24,44 36,44 36,54 C 36,57.32 33.32,60 30,60 26.68,60 24,57.32 24,54 L 24,44 z"
       id="rect3298"
       style="fill:#000000;fill-opacity:1;stroke:#000000;stroke-width:4;stroke-linecap:round;stroke-linejoin:round;stroke-miterlimit:4;stroke-opacity:1" />
    <path
       d="M 36,24 A 6,4 0 1 1 24,24"
       id="path3304"
       style="fill:none;stroke:#000000;stroke-width:4;stroke-linecap:round;stroke-linejoin:round;stroke-miterlimit:4;stroke-opacity:1;stroke-dasharray:none" />
  </g>
</svg>
