<?xml version="1.0" encoding="UTF-8" standalone="no"?>
<!-- Created with Inkscape (http://www.inkscape.org/) -->

<svg
   xmlns:svg="http://www.w3.org/2000/svg"
   xmlns="http://www.w3.org/2000/svg"
   version="1.1"
   width="64"
   height="64"
   id="svg3331">
  <defs
     id="defs3333" />
  <g
     id="layer1">
    <path
       d="M 14.13,0 C 10.73,0 8,2.733 8,6.125 L 8,53.88 C 8,57.27 10.73,60 14.13,60 L 49.88,60 C 53.27,60 56,57.27 56,53.88 L 56,6.125 C 56,2.733 53.27,0 49.88,0 L 14.13,0 z M 12,8 52,8 52,16 12,16 12,8 z M 16,20 24,20 24,28 16,28 16,20 z M 28,20 36,20 36,28 28,28 28,20 z M 40,20 48,20 48,28 40,28 40,20 z M 16,32 24,32 24,40 16,40 16,32 z M 28,32 36,32 36,40 28,40 28,32 z M 40,32 48,32 48,40 40,40 40,32 z M 16,44 24,44 24,52 16,52 16,44 z M 28,44 36,44 36,52 28,52 28,44 z M 40,44 48,44 48,52 40,52 40,44 z"
       id="rect2826"
       style="fill:#000000;fill-opacity:1;fill-rule:nonzero;stroke:none" />
  </g>
</svg>
