<?xml version="1.0" encoding="UTF-8" standalone="no"?>
<!-- Created with Inkscape (http://www.inkscape.org/) -->

<svg
   xmlns:svg="http://www.w3.org/2000/svg"
   xmlns="http://www.w3.org/2000/svg"
   version="1.1"
   width="64"
   height="64"
   id="svg3331">
  <defs
     id="defs3333" />
  <g
     id="layer1">
    <path
       d="M 62,18 C 62,25.78 62,56.57 62,56.57 62,59.58 59.54,62 56.48,62 L 7.525,62 C 4.464,62 2,59.58 2,56.57 L 2,18"
       id="path3596"
       style="fill:none;stroke:#000000;stroke-width:4;stroke-linecap:round;stroke-linejoin:round;stroke-miterlimit:4;stroke-opacity:1;stroke-dashoffset:0" />
    <path
       d="M 62,18 2,18 2,11.43 C 2,8.423 4.464,6 7.525,6 L 56.48,6 C 59.54,6 62,8.423 62,11.43 62,11.43 61.97,18 62,18 z"
       id="rect2385"
       style="fill:#000000;fill-opacity:1;stroke:#000000;stroke-width:4;stroke-linecap:round;stroke-linejoin:round;stroke-miterlimit:4;stroke-opacity:1;stroke-dashoffset:0" />
    <path
       d="M 14,2 14,12"
       id="path3595"
       style="fill:none;stroke:#000000;stroke-width:4;stroke-linecap:round;stroke-linejoin:miter;stroke-miterlimit:4;stroke-opacity:1;stroke-dasharray:none" />
    <path
       d="M 50,2 50,12"
       id="path3595-5"
       style="fill:none;stroke:#000000;stroke-width:4;stroke-linecap:round;stroke-linejoin:miter;stroke-miterlimit:4;stroke-opacity:1;stroke-dasharray:none" />
    <path
       d="M 22.99,48.16 C 24.76,47.97 26.53,47.77 28.3,47.58 28.38,49.02 29.3,50.55 30.84,50.71 32.8,51.12 34.61,49.55 35.09,47.73 35.6,46.11 35.77,44.4 35.9,42.71 34.26,44.77 31.4,45.55 28.89,44.91 25.3,44.07 22.73,40.6 22.5,36.99 22.15,33.75 23.08,30.19 25.69,28.08 29.22,25.1 35.09,25.37 38.23,28.81 40.74,31.4 41.32,35.17 41.52,38.63 41.64,42.58 41.52,46.77 39.64,50.36 38.01,53.39 34.66,55.36 31.22,55.29 28.55,55.4 25.68,54.31 24.3,51.92 23.6,50.78 23.2,49.48 22.99,48.16 z M 35.41,36.17 C 35.48,34.05 34.62,31.63 32.51,30.79 30.72,30.05 28.57,31.27 28.15,33.13 27.68,35.07 27.65,37.21 28.45,39.06 29.3,41.03 32.07,41.76 33.75,40.39 35.05,39.41 35.42,37.72 35.41,36.17 z"
       id="path2827"
       style="font-size:40px;font-style:normal;font-variant:normal;font-weight:bold;font-stretch:normal;fill:#000000;fill-opacity:1;stroke:none;font-family:Arial;-inkscape-font-specification:Andale Mono Bold" />
  </g>
</svg>
