<?xml version="1.0" encoding="UTF-8" standalone="no"?>
<!-- Created with Inkscape (http://www.inkscape.org/) -->

<svg
   xmlns:svg="http://www.w3.org/2000/svg"
   xmlns="http://www.w3.org/2000/svg"
   version="1.0"
   width="64"
   height="64"
   id="svg4729">
  <defs
     id="defs4731" />
  <path
     d="M 22,16.48 14,26 2,30 2,40.48 10,40.48 C 9.779,41.1 10,41.78 10,42.48 10,45.79 12.69,48.48 16,48.48 19.31,48.48 22,45.79 22,42.48 22,41.78 22.22,41.1 22,40.48 L 39.79,40.48 C 39.57,41.1 40,41.78 40,42.48 40,45.79 42.69,48.48 46,48.48 49.31,48.48 52,45.79 52,42.48 52,41.78 52.43,41.1 52.21,40.48 L 62,40.48 62,30 50,26 42,16.48 22,16.48 z"
     id="rect2380"
     style="fill:#000000;fill-opacity:1;stroke:#000000;stroke-width:4;stroke-linecap:round;stroke-linejoin:round;stroke-miterlimit:4;stroke-opacity:1;stroke-dasharray:none" />
</svg>
