<?xml version="1.0" encoding="UTF-8" standalone="no"?>
<!-- Created with Inkscape (http://www.inkscape.org/) -->

<svg
   xmlns:svg="http://www.w3.org/2000/svg"
   xmlns="http://www.w3.org/2000/svg"
   version="1.1"
   width="64"
   height="64"
   id="svg5326">
  <defs
     id="defs5328" />
  <g
     id="layer1">
    <path
       d="M 37,8 C 29.74,8 23.5,12.31 20.66,18.5 19.34,17.56 17.74,17 16,17 11.58,17 8,20.58 8,25 8,26.23 8.285,27.4 8.781,28.44 3.722,29.85 0,34.49 0,40 0,46.63 5.373,52 12,52 29,52 28,52 50,52 56.63,52 62,46.63 62,40 62,35.05 58.99,30.81 54.72,28.97 54.88,28 55,27.01 55,26 55,16.06 46.94,8 37,8 z"
       id="path2815"
       style="fill:#000000;fill-opacity:1;fill-rule:nonzero;stroke:none" />
  </g>
</svg>
