<?xml version="1.0" encoding="UTF-8" standalone="no"?>
<!-- Created with Inkscape (http://www.inkscape.org/) -->

<svg
   xmlns:svg="http://www.w3.org/2000/svg"
   xmlns="http://www.w3.org/2000/svg"
   version="1.0"
   width="64"
   height="64"
   id="svg4729">
  <defs
     id="defs4731" />
  <path
     d="M 42,28 C 42,29.93 41.44,31.77 40.43,33.45 39.42,35.12 37.95,36.63 36.14,37.9 34.33,39.16 32.17,40.19 29.78,40.9 28.59,41.25 27.33,41.53 26.03,41.72 24.73,41.9 7.38,58 6,58 3.354,58.05 16.76,41.57 14.22,40.9 11.83,40.19 9.67,39.16 7.86,37.9 6.05,36.63 4.585,35.12 3.572,33.45 2.56,31.77 2,29.93 2,28 2,20.27 10.96,14 22,14 33.04,14 42,20.27 42,28 z"
     id="path2388"
     style="fill:#000000;fill-opacity:1;stroke:#000000;stroke-width:4;stroke-linecap:round;stroke-linejoin:round;stroke-miterlimit:4;stroke-opacity:1;stroke-dasharray:none;stroke-dashoffset:0" />
  <path
     d="M 42,6 C 38.63,6 35.47,6.596 32.69,7.625 36.4,8.775 39.87,10.56 42.84,13.19 51.57,19.33 51.48,31.8 45.69,39.97 51.03,44.59 57.19,50 58,50 60.65,50.05 47.24,33.58 49.78,32.91 52.17,32.2 54.32,31.17 56.13,29.91 57.94,28.64 59.42,27.11 60.44,25.44 61.45,23.76 62,21.93 62,20 62,12.27 53.04,6 42,6 z"
     id="path3598"
     style="fill:#000000;fill-opacity:1;stroke:#000000;stroke-width:4;stroke-linecap:round;stroke-linejoin:round;stroke-miterlimit:4;stroke-opacity:1;stroke-dasharray:none;stroke-dashoffset:0" />
</svg>
