<?xml version="1.0" encoding="UTF-8" standalone="no"?>
<!-- Created with Inkscape (http://www.inkscape.org/) -->

<svg
   xmlns:svg="http://www.w3.org/2000/svg"
   xmlns="http://www.w3.org/2000/svg"
   version="1.0"
   width="64"
   height="64"
   id="svg4729">
  <defs
     id="defs4731" />
  <g
     id="icon">
    <path
       d="M 13.88,49.68 13.88,40.59 17.63,40.59 C 17.98,43.38 18.97,45.46 20.6,46.84 22.24,48.21 24.56,48.9 27.56,48.9 L 28,48.9 28,36.24 C 22.81,35.1 19.1,33.53 16.85,31.56 14.6,29.58 13.47,26.89 13.47,23.49 13.47,19.74 14.74,16.79 17.28,14.65 19.85,12.48 23.42,11.34 28,11.21 L 28,2.805 31.78,2.805 31.78,11.21 C 34.12,11.34 36.35,11.63 38.47,12.09 40.62,12.52 42.7,13.15 44.72,13.96 L 44.72,22.46 40.94,22.46 C 40.61,20.04 39.64,18.17 38.03,16.84 36.45,15.48 34.37,14.78 31.78,14.74 L 31.78,26.37 C 37.39,27.6 41.33,29.25 43.6,31.34 45.87,33.4 47,36.31 47,40.06 47,43.91 45.68,46.91 43.03,49.06 40.41,51.18 36.66,52.31 31.78,52.43 L 31.78,60.87 28,60.87 28,52.43 C 25.71,52.39 23.39,52.14 21.03,51.68 18.68,51.22 16.29,50.56 13.88,49.68 M 28,14.71 C 26.23,14.94 24.83,15.49 23.78,16.37 22.76,17.24 22.25,18.32 22.25,19.59 22.25,21.04 22.69,22.22 23.56,23.12 24.46,24.01 25.94,24.75 28,25.34 L 28,14.71 M 31.78,48.9 C 33.89,48.67 35.48,48.11 36.56,47.21 37.65,46.29 38.19,45.07 38.19,43.52 38.19,41.98 37.68,40.71 36.66,39.71 35.66,38.71 34.03,37.89 31.78,37.24 L 31.78,48.9"
       id="text2383"
       style="font-size:64px;font-style:normal;font-variant:normal;font-weight:bold;font-stretch:normal;fill:#000000;fill-opacity:1;stroke:none;font-family:Bitstream Vera Serif;-inkscape-font-specification:Bitstream Vera Serif Bold" />
  </g>
</svg>
