<?xml version="1.0" encoding="UTF-8" standalone="no"?>
<!-- Created with Inkscape (http://www.inkscape.org/) -->

<svg
   xmlns:svg="http://www.w3.org/2000/svg"
   xmlns="http://www.w3.org/2000/svg"
   version="1.0"
   width="64"
   height="64"
   id="svg4729">
  <defs
     id="defs4731" />
  <g
     id="icon">
    <path
       d="M 48.97,16.44 45.22,16.44 C 45.09,14.42 44.51,12.84 43.47,11.72 42.45,10.59 41.06,10.03 39.31,10.03 36.87,10.03 35.12,10.81 34.06,12.38 33,13.92 32.47,16.51 32.47,20.16 L 32.47,28.53 43.47,28.53 43.47,32.31 32.47,32.31 32.47,49.72 45.59,49.72 45.59,42.59 49.88,42.59 49.88,54 14.59,54 14.59,50.22 20.62,50.22 20.62,32.31 14.59,32.31 14.59,28.53 20.62,28.53 20.62,19.87 C 20.62,15.38 22.01,12.02 24.78,9.813 27.57,7.604 31.82,6.5 37.53,6.5 38.89,6.5 40.5,6.594 42.38,6.781 44.27,6.969 46.47,7.24 48.97,7.594 L 48.97,16.44"
       id="text2408"
       style="font-size:64px;font-style:normal;font-variant:normal;font-weight:bold;font-stretch:normal;fill:#000000;fill-opacity:1;stroke:none;font-family:Bitstream Vera Serif;-inkscape-font-specification:Bitstream Vera Serif Bold" />
  </g>
</svg>
