<?xml version="1.0" encoding="UTF-8" standalone="no"?>
<!-- Created with Inkscape (http://www.inkscape.org/) -->

<svg
   xmlns:svg="http://www.w3.org/2000/svg"
   xmlns="http://www.w3.org/2000/svg"
   version="1.0"
   width="64"
   height="64"
   id="svg4729">
  <defs
     id="defs4731" />
  <g
     id="icon">
    <path
       d="M 23.58,54 23.58,50.69 29.55,50.69 29.55,39.22 16.92,39.22 16.92,35.94 29.55,35.94 29.55,33.91 26.99,29.5 16.92,29.5 16.92,26.22 25.14,26.22 16.17,10.69 11.83,10.69 11.83,7.344 29.11,7.344 29.11,10.69 23.64,10.69 34.36,29.56 44.95,10.69 39.74,10.69 39.74,7.344 53.24,7.344 53.24,10.69 48.8,10.69 39.92,26.22 48.42,26.22 48.42,29.5 38.05,29.5 35.83,33.31 35.83,35.94 48.42,35.94 48.42,39.22 35.83,39.22 35.83,50.69 41.77,50.69 41.77,54 23.58,54"
       id="text2410"
       style="font-size:64px;font-style:normal;font-variant:normal;font-weight:normal;font-stretch:normal;fill:#000000;fill-opacity:1;stroke:none;font-family:Bitstream Vera Serif;-inkscape-font-specification:Bitstream Vera Serif" />
  </g>
</svg>
