<?xml version="1.0" encoding="UTF-8" standalone="no"?>
<!-- Created with Inkscape (http://www.inkscape.org/) -->

<svg
   xmlns:svg="http://www.w3.org/2000/svg"
   xmlns="http://www.w3.org/2000/svg"
   version="1.0"
   width="64"
   height="64"
   id="svg4729">
  <defs
     id="defs4731" />
  <g
     id="icon">
    <path
       d="M 38,16 C 38,12 38,14 38,10 26,10 18,10 6,10 6,26 6,38 6,54 18,54 26,54 38,54 38,50 38,40 38,36"
       id="path2815"
       style="fill:none;stroke:#000000;stroke-width:4;stroke-linecap:butt;stroke-linejoin:round;stroke-miterlimit:4;stroke-opacity:1;stroke-dasharray:none" />
    <path
       d="M 46,10 46,20 34,20 C 26,20 20,24 18,40 24,32 26.21,29.29 34,30 L 46,30 46,42 64.12,26 46,10 z"
       id="rect2838"
       style="fill:#000000;fill-opacity:1;fill-rule:nonzero;stroke:none" />
  </g>
</svg>
