<?xml version="1.0" encoding="UTF-8" standalone="no"?>
<!-- Created with Inkscape (http://www.inkscape.org/) -->

<svg
   xmlns:svg="http://www.w3.org/2000/svg"
   xmlns="http://www.w3.org/2000/svg"
   version="1.1"
   width="64"
   height="64"
   id="svg5326">
  <defs
     id="defs5328" />
  <g
     id="layer1">
    <path
       d="M 21,2 C 17.39,2 14.34,4.397 13.34,7.688 L 12.31,11.09 C 16.29,8.936 21.35,8.782 25.38,10.91 26.73,11.59 27.95,12.51 29,13.59 L 29,10 C 29,5.582 25.42,2 21,2 z M 43,2 C 38.58,2 35,5.582 35,10 L 35,13.59 C 36.05,12.51 37.27,11.59 38.62,10.91 42.66,8.782 47.71,8.936 51.69,11.09 L 50.66,7.688 C 49.66,4.397 46.61,2 43,2 z M 18.5,13.38 C 14.42,13.52 10.67,16.48 9.469,20.34 L 1.594,46 C 1.214,47.27 1,48.61 1,50 1,57.73 7.268,64 15,64 22.73,64 29,57.73 29,50 L 29,36 35,36 35,50 C 35,57.73 41.27,64 49,64 56.73,64 63,57.73 63,50 63,48.61 62.79,47.27 62.41,46 L 54.53,20.34 C 53.33,16.48 49.58,13.52 45.5,13.38 41.32,13.08 37.16,15.79 35.69,19.72 35.28,20.76 35.05,21.88 35,23 L 35,28 29,28 29,23 C 28.95,21.88 28.72,20.76 28.31,19.72 26.84,15.79 22.68,13.08 18.5,13.38 z M 15,40 C 20.52,40 25,44.48 25,50 25,55.52 20.52,60 15,60 9.477,60 5,55.52 5,50 5,44.48 9.477,40 15,40 z M 49,40 C 54.52,40 59,44.48 59,50 59,55.52 54.52,60 49,60 43.48,60 39,55.52 39,50 39,44.48 43.48,40 49,40 z"
       id="path3759"
       style="fill:#000000;fill-opacity:1;fill-rule:nonzero;stroke:none" />
  </g>
</svg>
