<?xml version="1.0" encoding="UTF-8" standalone="no"?>
<!-- Created with Inkscape (http://www.inkscape.org/) -->

<svg
   xmlns:svg="http://www.w3.org/2000/svg"
   xmlns="http://www.w3.org/2000/svg"
   version="1.0"
   width="64"
   height="64"
   id="svg4729">
  <defs
     id="defs4731" />
  <g
     id="icon">
    <path
       d="M 24.94,4 22.12,20 10.12,20 8.705,28 20.71,28 19.29,36 7.295,36 5.884,44 17.88,44 15.06,60 23.06,60 25.88,44 33.88,44 31.06,60 39.06,60 41.88,44 53.88,44 55.29,36 43.29,36 44.71,28 56.71,28 58.12,20 46.12,20 48.94,4 40.94,4 38.12,20 30.12,20 32.94,4 24.94,4 z M 28.71,28 36.71,28 35.29,36 27.29,36 28.71,28 z"
       id="rect2862"
       style="fill:#000000;fill-opacity:1;fill-rule:nonzero;stroke:none" />
  </g>
</svg>
