<?xml version="1.0" encoding="UTF-8" standalone="no"?>
<!-- Created with Inkscape (http://www.inkscape.org/) -->

<svg
   xmlns:svg="http://www.w3.org/2000/svg"
   xmlns="http://www.w3.org/2000/svg"
   version="1.1"
   width="64"
   height="64"
   id="svg2381">
  <defs
     id="defs2383" />
  <g
     id="layer1">
    <path
       d="M 28.35,44.29 C 30.38,44.29 32.43,44.29 34.46,44.29 34.46,46.86 34.46,49.41 34.46,51.98 32.43,51.98 30.38,51.98 28.35,51.98 28.35,49.41 28.35,46.86 28.35,44.29 z M 34.28,39.84 C 32.36,39.84 30.44,39.84 28.53,39.84 28.64,36.53 28.1,37.04 29.48,33.92 31,31.04 33.63,29.02 35.85,26.71 37.92,24.84 39.6,21.95 38.61,19.1 37.56,15.91 33.85,14.64 30.78,14.99 27.19,15.31 23.93,17.09 21,19.1 21,17.21 21,15.31 21,13.41 26.06,10.28 32.56,8.925 38.28,10.92 42.07,12.28 44.97,15.98 44.99,20.08 45.3,23.61 43.21,26.75 40.78,29.07 38.81,31.14 36.5,32.92 34.96,35.33 33.93,37.72 34.37,36.4 34.28,38.93 34.28,39.24 34.28,39.54 34.28,39.84 z"
       id="path2817"
       style="font-size:61.8249px;font-style:normal;font-weight:normal;fill:#000000;fill-opacity:1;stroke:none;font-family:Bitstream Vera Sans" />
    <path
       d="M 60,31.5 C 60,47.24 47.24,60 31.5,60 15.76,60 3,47.24 3,31.5 3,15.76 15.76,3 31.5,3 47.24,3 60,15.76 60,31.5 z"
       id="path3171"
       style="fill:none;stroke:#000000;stroke-width:6;stroke-linecap:round;stroke-linejoin:round;stroke-miterlimit:4;stroke-opacity:1;stroke-dashoffset:0" />
  </g>
</svg>
