<?xml version="1.0" encoding="UTF-8" standalone="no"?>
<!-- Created with Inkscape (http://www.inkscape.org/) -->

<svg
   xmlns:svg="http://www.w3.org/2000/svg"
   xmlns="http://www.w3.org/2000/svg"
   version="1.0"
   width="64"
   height="64"
   id="svg4729">
  <defs
     id="defs4731" />
  <g
     id="icon">
    <path
       d="M 26,20 C 26,16 26,14 26,10 38,10 46,10 58,10 58,26 58,38 58,54 46,54 38,54 26,54 26,50 26,44 26,40"
       id="path2815"
       style="fill:none;stroke:#000000;stroke-width:4;stroke-linecap:butt;stroke-linejoin:round;stroke-miterlimit:4;stroke-opacity:1;stroke-dasharray:none" />
    <path
       d="M 36,16 36,26 24,26 C 16,26 10,30 8,46 14,38 16.21,35.29 24,36 L 36,36 36,48 54.13,32 36,16 z"
       id="rect2838"
       style="fill:#000000;fill-opacity:1;fill-rule:nonzero;stroke:none" />
  </g>
</svg>
