<?xml version="1.0" encoding="UTF-8" standalone="no"?>
<!-- Created with Inkscape (http://www.inkscape.org/) -->

<svg
   xmlns:svg="http://www.w3.org/2000/svg"
   xmlns="http://www.w3.org/2000/svg"
   version="1.1"
   width="64"
   height="64"
   id="svg3193">
  <defs
     id="defs3195" />
  <g
     id="layer1">
    <path
       d="M 26.29,15.44 C 26.14,12.37 29.36,9.78 32.48,10.34 35.51,10.7 37.65,13.89 36.82,16.7 36.18,19.38 33.08,21.12 30.32,20.39 28.01,19.88 26.21,17.74 26.29,15.44 z M 37.09,48.76 C 38.49,48.76 39.91,48.76 41.32,48.76 41.32,49.83 41.32,50.92 41.32,52 35.21,52 29.11,52 23,52 23,50.92 23,49.83 23,48.76 24.4,48.76 25.81,48.76 27.21,48.76 27.21,41.42 27.21,34.08 27.21,26.75 25.81,26.75 24.4,26.75 23,26.75 23,25.67 23,24.58 23,23.5 27.69,23.5 32.38,23.5 37.09,23.5 37.09,31.92 37.09,40.34 37.09,48.76 z"
       id="path2817"
       style="font-size:56px;font-style:normal;font-variant:normal;font-weight:bold;font-stretch:normal;text-align:start;line-height:100%;writing-mode:lr-tb;text-anchor:start;fill:#000000;fill-opacity:1;stroke:none;font-family:Serif;-inkscape-font-specification:Serif Bold" />
    <path
       d="M 60,31.5 C 60,47.24 47.24,60 31.5,60 15.76,60 3,47.24 3,31.5 3,15.76 15.76,3 31.5,3 47.24,3 60,15.76 60,31.5 z"
       id="path2383"
       style="fill:none;stroke:#000000;stroke-width:6;stroke-linecap:round;stroke-linejoin:round;stroke-miterlimit:4;stroke-opacity:1;stroke-dashoffset:0" />
  </g>
</svg>
