<?xml version="1.0" encoding="UTF-8" standalone="no"?>
<!-- Created with Inkscape (http://www.inkscape.org/) -->

<svg
   xmlns:svg="http://www.w3.org/2000/svg"
   xmlns="http://www.w3.org/2000/svg"
   version="1.0"
   width="64"
   height="64"
   id="svg4729">
  <defs
     id="defs4731" />
  <g
     id="icon">
    <path
       d="M 7.272,7.485 C 0.243,14.51 0.243,25.91 7.272,32.94 12.27,37.94 19.47,39.38 25.75,37.27 27.99,39.54 33.11,44.62 35.36,46.88 L 44.04,44.25 41.41,52.94 50.12,50.33 47.49,59.02 47.69,59.21 C 50.51,62.07 55.4,61.24 58.03,58.55 60.84,56.02 61.95,51.17 59.27,48.17 51.87,40.75 44.45,33.33 37.04,25.94 39.14,19.66 37.72,12.48 32.73,7.485 25.7,0.4556 14.3,0.4556 7.272,7.485 z M 11.52,11.73 C 13.86,9.384 17.66,9.384 20,11.73 22.34,14.07 22.34,17.87 20,20.21 17.66,22.56 13.86,22.56 11.52,20.21 9.172,17.87 9.172,14.07 11.52,11.73 z"
       id="path2831"
       style="fill:#000000;fill-opacity:1;fill-rule:nonzero;stroke:none" />
  </g>
</svg>
