<?xml version="1.0" encoding="UTF-8" standalone="no"?>
<!-- Created with Inkscape (http://www.inkscape.org/) -->

<svg
   xmlns:svg="http://www.w3.org/2000/svg"
   xmlns="http://www.w3.org/2000/svg"
   version="1.0"
   width="64"
   height="64"
   id="svg4729">
  <defs
     id="defs4731" />
  <path
     d="M 10.7,56.66 7.34,53.3 C 4.547,50.51 4.851,45.71 8.026,42.53 L 15.66,34.9 C 18.84,31.72 23.64,31.42 26.43,34.21 L 29.79,37.57 C 32.58,40.35 32.27,45.16 29.1,48.33 L 21.46,55.97 C 18.29,59.14 13.48,59.45 10.7,56.66 z"
     id="rect3587"
     style="fill:none;stroke:#000000;stroke-width:5;stroke-miterlimit:4;stroke-opacity:1" />
  <path
     d="M 37.57,29.79 34.21,26.43 C 31.42,23.64 31.72,18.84 34.9,15.66 L 42.53,8.026 C 45.71,4.851 50.51,4.547 53.3,7.34 L 56.66,10.7 C 59.45,13.48 59.14,18.29 55.97,21.46 L 48.33,29.1 C 45.16,32.27 40.35,32.58 37.57,29.79 z"
     id="rect3591"
     style="fill:none;stroke:#000000;stroke-width:5;stroke-miterlimit:4;stroke-opacity:1" />
  <path
     d="M 22.6,41.69 41.4,22.31"
     id="path3593"
     style="fill:none;stroke:#000000;stroke-width:5;stroke-linecap:round;stroke-linejoin:miter;stroke-miterlimit:4;stroke-opacity:1;stroke-dasharray:none" />
</svg>
