<?xml version="1.0" encoding="UTF-8" standalone="no"?>
<!-- Created with Inkscape (http://www.inkscape.org/) -->

<svg
   xmlns:svg="http://www.w3.org/2000/svg"
   xmlns="http://www.w3.org/2000/svg"
   version="1.0"
   width="64"
   height="64"
   id="svg4729">
  <defs
     id="defs4731" />
  <g
     id="icon">
    <path
       d="M 7.265,13.92 C 3.046,18.13 9.123,31.06 20.83,42.77 32.54,54.48 45.47,60.56 49.69,56.34 L 51.55,54.49 58,48.03 C 58.56,47.47 58.56,46.56 58,46 L 43.29,34.78 40.23,43.17 C 39.96,43.44 39.82,45.81 39.81,46.17 36.19,43.74 30.37,40.63 26.68,36.93 22.98,33.23 19.87,27.41 17.44,23.79 17.8,23.79 20.16,23.65 20.43,23.37 L 29.32,20.29 17.61,5.607 C 17.05,5.046 16.13,5.046 15.57,5.607 L 9.121,12.06 7.265,13.92 z"
       id="path2387"
       style="fill:#000000;fill-opacity:1;stroke:#000000;stroke-width:4;stroke-linecap:round;stroke-linejoin:round;stroke-miterlimit:4;stroke-opacity:1;stroke-dasharray:none" />
  </g>
</svg>
