<?xml version="1.0" encoding="UTF-8" standalone="no"?>
<!-- Created with Inkscape (http://www.inkscape.org/) -->

<svg
   xmlns:svg="http://www.w3.org/2000/svg"
   xmlns="http://www.w3.org/2000/svg"
   version="1.0"
   width="64"
   height="64"
   id="svg4729">
  <defs
     id="defs4731" />
  <path
     d="M 32,1.5 C 29,2.797 27.99,6.325 26.92,9.139 25.88,11.62 26.41,14.26 26.53,16.84 18.35,23.14 10.18,29.43 2,35.72 2,37.72 2,39.72 2,41.72 10.35,38.5 18.71,35.28 27.06,32.06 27.33,38.97 27.57,45.87 27.81,52.78 25.21,54.52 22.6,56.26 20,58 20,59.33 20,60.67 20,62 24,60.67 28,59.33 32,58 36,59.33 40,60.67 44,62 44,60.67 44,59.33 44,58 41.4,56.26 38.79,54.52 36.19,52.78 36.44,45.87 36.67,38.97 36.94,32.06 45.29,35.28 53.65,38.5 62,41.72 62,39.72 62,37.72 62,35.72 53.82,29.43 45.65,23.14 37.47,16.84 37.63,14.12 38.1,11.32 36.94,8.719 35.88,6.072 34.87,2.679 32,1.5 z"
     id="rect2817"
     style="fill:#000000;fill-opacity:1;fill-rule:nonzero;stroke:none" />
</svg>
