<?xml version="1.0" encoding="UTF-8" standalone="no"?>
<!-- Created with Inkscape (http://www.inkscape.org/) -->

<svg
   xmlns:svg="http://www.w3.org/2000/svg"
   xmlns="http://www.w3.org/2000/svg"
   version="1.1"
   width="64"
   height="64"
   id="svg5326">
  <defs
     id="defs5328" />
  <g
     id="layer1">
    <path
       d="M 10,42 10,50 8.364,50 C 4.838,50 2,47.16 2,43.64 L 2,32.36 C 2,28.84 4.838,26 8.364,26 L 55.64,26 C 59.16,26 62,28.84 62,32.36 L 62,43.64 C 62,47.16 59.16,50 55.64,50 L 54,50 54,42"
       id="rect2384"
       style="fill:#000000;fill-opacity:1;stroke:#000000;stroke-width:4;stroke-linecap:round;stroke-linejoin:round;stroke-miterlimit:4;stroke-opacity:1;stroke-dashoffset:0" />
    <path
       d="M 18,2 46,2 46,26 18,26 18,2 z"
       id="rect2386"
       style="fill:none;stroke:#000000;stroke-width:4;stroke-linecap:round;stroke-linejoin:round;stroke-miterlimit:4;stroke-opacity:1;stroke-dashoffset:0" />
    <path
       d="M 13.01,42 50.99,42 C 52.66,42 54,43.34 54,45.01 L 54,54.99 C 54,56.66 52.66,58 50.99,58 L 13.01,58 C 11.34,58 10,56.66 10,54.99 L 10,45.01 C 10,43.34 11.34,42 13.01,42 z"
       id="rect2388"
       style="fill:none;stroke:#000000;stroke-width:4;stroke-linecap:round;stroke-linejoin:round;stroke-miterlimit:4;stroke-opacity:1;stroke-dashoffset:0" />
  </g>
</svg>
