<?xml version="1.0" encoding="UTF-8" standalone="no"?>
<!-- Created with Inkscape (http://www.inkscape.org/) -->

<svg
   xmlns:svg="http://www.w3.org/2000/svg"
   xmlns="http://www.w3.org/2000/svg"
   version="1.1"
   width="64"
   height="64"
   id="svg3331">
  <defs
     id="defs3333" />
  <g
     id="layer1">
    <path
       d="M 10.22,2 C 5.667,2 2,5.667 2,10.22 L 2,53.78 C 2,58.33 5.667,62 10.22,62 L 53.78,62 C 58.33,62 62,58.33 62,53.78 L 62,10.22 C 62,5.667 58.33,2 53.78,2 L 10.22,2 z M 14,5 C 38.8,5 59,25.2 59,50 59,51.53 58.89,52.98 58.75,54.38 58.57,56.33 56.75,57.99 54.78,58 L 46.75,58 C 44.5,58 42.52,55.77 42.78,53.53 42.92,52.36 43,51.17 43,50 43,33.95 30.05,21 14,21 12.83,21 11.64,21.08 10.47,21.22 8.235,21.48 6.002,19.5 6,17.25 L 6,9.219 C 6.007,7.254 7.669,5.434 9.625,5.25 11.02,5.115 12.47,5 14,5 z M 14,25 C 27.76,25 39,36.24 39,50 39,51.67 38.82,53.25 38.53,54.75 38.19,56.56 36.44,58 34.59,58 L 26.37,58 C 25.12,58 23.9,57.39 23.16,56.38 22.42,55.36 22.18,53.98 22.56,52.78 22.84,51.92 23,50.97 23,50 23,44.99 19.01,41 14,41 13.03,41 12.08,41.16 11.22,41.44 10.02,41.82 8.638,41.58 7.625,40.84 6.612,40.1 5.999,38.88 6,37.63 L 6,29.41 C 5.996,27.56 7.437,25.81 9.25,25.47 10.75,25.18 12.33,25 14,25 z M 14,42 C 18.37,42 22,45.63 22,50 22,54.37 18.37,58 14,58 9.629,58 6,54.37 6,50 6,45.63 9.629,42 14,42 z"
       id="rect2385"
       style="fill:#000000;fill-opacity:1;stroke:#000000;stroke-width:4;stroke-linecap:round;stroke-linejoin:round;stroke-miterlimit:4;stroke-opacity:1;stroke-dasharray:none;stroke-dashoffset:0" />
  </g>
</svg>
