<?xml version="1.0" encoding="UTF-8" standalone="no"?>
<!-- Created with Inkscape (http://www.inkscape.org/) -->

<svg
   xmlns:svg="http://www.w3.org/2000/svg"
   xmlns="http://www.w3.org/2000/svg"
   version="1.0"
   width="64"
   height="64"
   id="svg4729">
  <defs
     id="defs4731" />
  <path
     d="M 32,0 C 25,0 19.31,5.735 17.3,12 16,16 16,20 16,24 11.52,24 8,28.16 8,32.62 L 8,53 C 8,57.1 12.53,60 16.77,60 L 48.91,60 C 53.16,60 56,55.4 56,51.23 L 56,31.05 C 56,27.24 51.71,24 48,24 48,19.1 48,14 45.66,9.624 43.21,4.347 38,0 32,0 z M 32,8 C 34.4,7.978 36.42,9.819 37.83,12 39.96,15.1 39.97,20.24 40,24 L 24,24 C 24,20 24,15.5 26.17,12 27.41,10 29.46,8 32,8 z M 32,34 C 35.3,34 38,36.69 38,40 38,42.22 36.79,44.13 35,45.17 L 35,53.23 C 35,53.64 34.65,54 34.24,54 L 29.75,54 C 29.34,54 29,53.64 29,53.23 L 29,45.17 C 27.22,44.13 26,42.22 26,40 26,36.69 28.69,34 32,34 z"
     id="path3588"
     style="font-size:medium;font-style:normal;font-variant:normal;font-weight:normal;font-stretch:normal;text-indent:0;text-align:start;text-decoration:none;line-height:normal;letter-spacing:normal;word-spacing:normal;text-transform:none;direction:ltr;block-progression:tb;writing-mode:lr-tb;text-anchor:start;color:#000000;fill:#000000;fill-opacity:1;stroke:none;stroke-width:8;marker:none;visibility:visible;display:inline;overflow:visible;enable-background:accumulate;font-family:Andale Mono;-inkscape-font-specification:Andale Mono" />
</svg>
