<?xml version="1.0" encoding="UTF-8" standalone="no"?>
<!-- Created with Inkscape (http://www.inkscape.org/) -->

<svg
   xmlns:svg="http://www.w3.org/2000/svg"
   xmlns="http://www.w3.org/2000/svg"
   version="1.0"
   width="64"
   height="64"
   id="svg4729">
  <defs
     id="defs4731" />
  <g
     id="icon">
    <path
       d="M 33.37,4 2.25,35.13 24.87,57.75 37.06,45.56 35.75,44.25 A 6.001,6.001 0 0 1 39.94,33.94 6.001,6.001 0 0 1 44.25,35.75 L 45.56,37.06 56,26.62 56,4 33.37,4 z M 46.09,8.906 C 47.37,8.906 48.65,9.399 49.63,10.38 51.58,12.33 51.58,15.48 49.63,17.44 47.67,19.39 44.52,19.39 42.56,17.44 40.61,15.48 40.61,12.33 42.56,10.38 43.54,9.399 44.81,8.906 46.09,8.906 z"
       id="rect2818"
       style="fill:#000000;fill-opacity:1;fill-rule:nonzero;stroke:none" />
    <path
       d="M 56,56 40,40"
       id="path2826"
       style="fill:none;stroke:#000000;stroke-width:4;stroke-linecap:round;stroke-linejoin:miter;stroke-miterlimit:4;stroke-opacity:1;stroke-dasharray:none" />
    <path
       d="M 40,56 56,40"
       id="path3600"
       style="fill:none;stroke:#000000;stroke-width:5;stroke-linecap:round;stroke-linejoin:miter;stroke-miterlimit:4;stroke-opacity:1;stroke-dasharray:none" />
    <path
       d="M 56,56 40,40"
       id="path15"
       style="fill:none;stroke:#000000;stroke-width:5;stroke-linecap:round;stroke-linejoin:miter;stroke-miterlimit:4;stroke-opacity:1;stroke-dasharray:none" />
  </g>
</svg>
