<?xml version="1.0" encoding="UTF-8" standalone="no"?>
<!-- Created with Inkscape (http://www.inkscape.org/) -->

<svg
   xmlns:svg="http://www.w3.org/2000/svg"
   xmlns="http://www.w3.org/2000/svg"
   version="1.0"
   width="64"
   height="64"
   id="svg4729">
  <defs
     id="defs4731" />
  <g
     id="icon">
    <path
       d="M 52.05,31.11 C 53.55,32.14 54.77,33.45 55.71,35.02 56.64,36.56 57.11,38.39 57.11,40.5 57.11,43.03 56.57,45.18 55.5,46.93 54.44,48.67 52.92,50.04 50.93,51.05 48.82,52.13 46.38,52.89 43.61,53.33 40.87,53.78 37.64,54 33.91,54 L 8,54 8,51.26 C 8.726,51.19 9.64,51.08 10.74,50.94 11.84,50.8 12.62,50.64 13.06,50.45 13.93,50.1 14.52,49.64 14.82,49.08 15.15,48.49 15.31,47.74 15.31,46.83 L 15.31,11.67 C 15.31,10.83 15.18,10.13 14.93,9.563 14.67,9 14.05,8.508 13.06,8.086 12.34,7.781 11.49,7.535 10.53,7.348 9.57,7.137 8.726,6.973 8,6.855 L 8,4.113 35.11,4.113 C 41.93,4.113 46.85,5.051 49.87,6.926 52.89,8.801 54.41,11.57 54.41,15.22 54.41,16.91 54.07,18.4 53.39,19.69 52.71,20.95 51.73,22.05 50.47,22.99 49.32,23.86 47.95,24.61 46.36,25.24 44.76,25.88 43.05,26.4 41.22,26.82 L 41.22,27.49 C 43.05,27.68 44.95,28.09 46.92,28.72 48.89,29.33 50.6,30.13 52.05,31.11 M 40.73,16.1 C 40.73,13.34 39.95,11.18 38.37,9.633 36.83,8.086 34.5,7.313 31.38,7.312 30.93,7.313 30.35,7.336 29.62,7.383 28.92,7.406 28.31,7.43 27.79,7.453 L 27.79,25.95 29.62,25.95 C 33.42,25.95 36.22,25.07 38.02,23.31 39.83,21.53 40.73,19.13 40.73,16.1 M 43.19,40.04 C 43.19,36.57 42.16,33.91 40.1,32.06 38.03,30.21 35.07,29.29 31.2,29.29 30.76,29.29 30.16,29.31 29.41,29.36 28.68,29.38 28.14,29.4 27.79,29.43 L 27.79,47.67 C 28,48.54 28.66,49.28 29.76,49.89 30.86,50.47 32.2,50.77 33.77,50.77 36.56,50.77 38.82,49.83 40.55,47.95 42.31,46.08 43.19,43.44 43.19,40.04"
       id="text3498"
       style="font-size:72px;font-style:normal;font-variant:normal;font-weight:bold;font-stretch:normal;fill:#000000;fill-opacity:1;stroke:none;font-family:Georgia;-inkscape-font-specification:Georgia Bold" />
  </g>
</svg>
