<?xml version="1.0" encoding="UTF-8" standalone="no"?>
<!-- Created with Inkscape (http://www.inkscape.org/) -->

<svg
   xmlns:svg="http://www.w3.org/2000/svg"
   xmlns="http://www.w3.org/2000/svg"
   version="1.0"
   width="64"
   height="64"
   id="svg4729">
  <defs
     id="defs4731" />
  <g
     id="icon">
    <path
       d="M 59.89,6.609 C 59.24,6.633 58.28,6.773 57.01,7.031 55.75,7.289 54.71,7.676 53.92,8.191 53.12,8.731 52.57,9.844 52.27,11.53 51.96,13.22 51.81,15.28 51.81,17.72 L 51.81,39.41 C 51.81,42.18 51.23,44.58 50.09,46.62 48.94,48.66 47.43,50.33 45.55,51.64 43.7,52.91 41.74,53.81 39.68,54.35 37.64,54.91 35.68,55.2 33.81,55.2 30.81,55.2 28.14,54.8 25.79,54 23.45,53.23 21.48,52.17 19.89,50.84 18.32,49.5 17.13,47.98 16.34,46.27 15.54,44.53 15.14,42.73 15.14,40.85 L 15.14,11.36 C 15.14,10.54 15,9.856 14.72,9.316 14.46,8.754 13.92,8.238 13.1,7.77 12.52,7.441 11.77,7.184 10.85,6.996 9.937,6.785 9.187,6.656 8.602,6.609 L 8.602,4.113 29.38,4.113 29.38,6.609 C 28.72,6.633 27.89,6.738 26.88,6.926 25.9,7.113 25.17,7.289 24.7,7.453 23.91,7.734 23.37,8.203 23.09,8.859 22.83,9.516 22.7,10.23 22.7,11 L 22.7,38.57 C 22.7,39.9 22.84,41.31 23.12,42.79 23.43,44.24 24.01,45.6 24.88,46.86 25.79,48.15 27.04,49.21 28.61,50.03 30.18,50.85 32.33,51.26 35.07,51.26 37.65,51.26 39.81,50.85 41.54,50.03 43.3,49.21 44.68,48.13 45.69,46.79 46.65,45.53 47.33,44.2 47.73,42.82 48.13,41.44 48.33,40.04 48.33,38.64 L 48.33,18.18 C 48.33,15.57 48.14,13.45 47.77,11.81 47.39,10.15 46.84,9.059 46.11,8.543 45.29,7.957 44.17,7.5 42.74,7.172 41.33,6.844 40.25,6.656 39.5,6.609 L 39.5,4.113 59.89,4.113 59.89,6.609"
       id="text2383"
       style="font-size:72px;font-style:normal;font-variant:normal;font-weight:normal;font-stretch:normal;fill:#000000;fill-opacity:1;stroke:none;font-family:Georgia;-inkscape-font-specification:Georgia" />
    <path
       d="M 10,62 58,62"
       id="path2387"
       style="fill:none;stroke:#000000;stroke-width:4;stroke-linecap:round;stroke-linejoin:miter;stroke-miterlimit:4;stroke-opacity:1;stroke-dasharray:none" />
  </g>
</svg>
