<?xml version="1.0" encoding="UTF-8" standalone="no"?>
<!-- Created with Inkscape (http://www.inkscape.org/) -->

<svg
   xmlns:svg="http://www.w3.org/2000/svg"
   xmlns="http://www.w3.org/2000/svg"
   version="1.0"
   width="64"
   height="64"
   id="svg4729">
  <defs
     id="defs4731" />
  <g
     id="icon">
    <path
       d="M 12.1,53.95 12.7,51.38 C 13.38,51.36 14.3,51.29 15.47,51.17 16.64,51.03 17.55,50.85 18.18,50.64 19.09,50.34 19.79,49.88 20.25,49.27 20.75,48.64 21.09,47.91 21.27,47.09 L 29.32,12.21 C 29.44,11.72 29.52,11.31 29.57,10.98 29.62,10.66 29.64,10.41 29.64,10.25 29.64,9.262 29.09,8.5 27.99,7.961 26.91,7.398 25.25,6.953 23,6.625 L 23.59,4.059 51.26,4.059 50.66,6.625 C 49.91,6.672 48.95,6.789 47.78,6.977 46.61,7.141 45.73,7.316 45.14,7.504 44.18,7.809 43.47,8.289 43,8.945 42.55,9.578 42.24,10.29 42.05,11.09 L 34,46 C 33.91,46.4 33.82,46.77 33.75,47.13 33.71,47.48 33.68,47.75 33.68,47.93 33.68,49.11 34.22,49.93 35.3,50.39 36.4,50.84 38.09,51.17 40.36,51.38 L 39.77,53.95 12.1,53.95"
       id="text3523"
       style="font-size:72px;font-style:italic;font-variant:normal;font-weight:bold;font-stretch:normal;fill:#000000;fill-opacity:1;stroke:none;font-family:Georgia;-inkscape-font-specification:Georgia Bold Italic" />
  </g>
</svg>
