<?xml version="1.0" encoding="UTF-8" standalone="no"?>
<!-- Created with Inkscape (http://www.inkscape.org/) -->

<svg
   xmlns:svg="http://www.w3.org/2000/svg"
   xmlns="http://www.w3.org/2000/svg"
   version="1.0"
   width="64"
   height="64"
   id="svg4729">
  <defs
     id="defs4731" />
  <g
     id="icon">
    <path
       d="M 20,12 20,20 7.5,20 C 5,24 2.5,26 0,30 L 0,48 4,48 C 4,43.58 7.582,40 12,40 16.42,40 20,43.58 20,48 L 40,48 C 40,43.58 43.58,40 48,40 52.42,40 56,43.58 56,48 L 60,48 60,12 20,12 z M 10,23 17.5,23 17.5,30 5,30 C 6.667,27 8.333,26 10,23 z"
       id="rect2824"
       style="fill:#000000;fill-opacity:1;fill-rule:nonzero;stroke:none" />
    <path
       d="M 18,48 C 18,51.31 15.31,54 12,54 8.683,54 6,51.31 6,48 6,44.69 8.683,42 12,42 15.31,42 18,44.69 18,48 z"
       id="path3621"
       style="fill:#000000;fill-opacity:1;fill-rule:nonzero;stroke:none" />
    <path
       d="M 54,48 C 54,51.31 51.31,54 48,54 44.68,54 42,51.31 42,48 42,44.69 44.68,42 48,42 51.31,42 54,44.69 54,48 z"
       id="path3623"
       style="fill:#000000;fill-opacity:1;fill-rule:nonzero;stroke:none" />
  </g>
</svg>
