<?xml version="1.0" encoding="UTF-8" standalone="no"?>
<!-- Created with Inkscape (http://www.inkscape.org/) -->

<svg
   xmlns:svg="http://www.w3.org/2000/svg"
   xmlns="http://www.w3.org/2000/svg"
   version="1.1"
   width="64"
   height="64"
   id="svg5326">
  <defs
     id="defs5328" />
  <g
     id="layer1">
    <path
       d="M 11.97,38 C 9.1,40.6 5.157,42.36 3.592,46.14 2.076,49.91 2.215,54.07 2.375,58.06 13.58,62.24 26.3,62.24 37.5,58.06 37.66,53.89 37.83,49.5 36.04,45.62 34.33,42.16 30.64,40.5 27.91,38 25.91,41.36 21.76,43.56 17.86,42.49 15.39,41.87 13.31,40.13 11.97,38 z"
       id="path2385"
       style="fill:#000000;fill-opacity:1;stroke:#000000;stroke-width:4;stroke-linecap:round;stroke-linejoin:round;stroke-miterlimit:4;stroke-opacity:1;stroke-dasharray:none;stroke-dashoffset:0" />
    <path
       d="M 30,21 C 30,27.63 25.52,33 20,33 14.48,33 10,27.63 10,21 10,14.37 14.48,9 20,9 25.52,9 30,14.37 30,21 z"
       id="path2411"
       style="fill:#000000;fill-opacity:1;stroke:#000000;stroke-width:4;stroke-linecap:round;stroke-linejoin:round;stroke-miterlimit:4;stroke-opacity:1;stroke-dashoffset:0" />
    <path
       d="M 40,36 C 39.38,36.5 38.78,36.94 38.22,37.34 43.76,41.26 45.73,47.91 45.5,54.06 52.8,55.51 55,55.51 61.91,52.13 62.9,42.65 59.62,40.39 53.66,36 52.09,38.32 49.63,39.81 46.84,39.81 44.06,39.81 41.57,38.32 40,36 z"
       id="path3621"
       style="fill:#000000;fill-opacity:1;stroke:#000000;stroke-width:4;stroke-linecap:round;stroke-linejoin:round;stroke-miterlimit:4;stroke-opacity:1;stroke-dasharray:none;stroke-dashoffset:0" />
    <path
       d="M 54.31,20.34 C 54.31,25.67 50.73,29.98 46.31,29.98 41.9,29.98 38.31,25.67 38.31,20.34 38.31,15.01 41.9,10.69 46.31,10.69 50.73,10.69 54.31,15.01 54.31,20.34 z"
       id="path3623"
       style="fill:#000000;fill-opacity:1;stroke:#000000;stroke-width:4;stroke-linecap:round;stroke-linejoin:round;stroke-miterlimit:4;stroke-opacity:1;stroke-dashoffset:0" />
  </g>
</svg>
