<?xml version="1.0" encoding="UTF-8" standalone="no"?>
<!-- Created with Inkscape (http://www.inkscape.org/) -->

<svg
   xmlns:svg="http://www.w3.org/2000/svg"
   xmlns="http://www.w3.org/2000/svg"
   version="1.1"
   width="64"
   height="64"
   id="svg5326">
  <defs
     id="defs5328" />
  <g
     id="layer1">
    <path
       d="M 1.454,22.18 A 5.001,5.001 0 0 0 8.549,29.23 C 8.559,29.22 8.579,29.2 8.589,29.19 21.46,16.31 42.14,16.26 55.07,29.01 A 5,5 0 1 0 62.09,21.89 C 45.33,5.365 18.19,5.439 1.514,22.12 1.514,22.13 1.474,22.16 1.454,22.18 z"
       id="path2828"
       style="font-size:medium;font-style:normal;font-variant:normal;font-weight:normal;font-stretch:normal;text-indent:0;text-align:start;text-decoration:none;line-height:normal;letter-spacing:normal;word-spacing:normal;text-transform:none;direction:ltr;block-progression:tb;writing-mode:lr-tb;text-anchor:start;color:#000000;fill:#000000;fill-opacity:1;stroke:none;stroke-width:10;marker:none;visibility:visible;display:inline;overflow:visible;enable-background:accumulate;font-family:Andale Mono;-inkscape-font-specification:Andale Mono" />
    <path
       d="M 27.4,45.01 C 24.77,47.65 24.87,51.85 27.23,54.21 29.59,56.57 33.79,56.68 36.44,54.04 39.07,51.41 38.97,47.21 36.61,44.84 34.25,42.49 30.03,42.38 27.4,45.01 z"
       id="path3602"
       style="font-size:medium;font-style:normal;font-variant:normal;font-weight:normal;font-stretch:normal;text-indent:0;text-align:start;text-decoration:none;line-height:normal;letter-spacing:normal;word-spacing:normal;text-transform:none;direction:ltr;block-progression:tb;writing-mode:lr-tb;text-anchor:start;color:#000000;fill:#000000;fill-opacity:1;stroke:none;stroke-width:228.4883;marker:none;visibility:visible;display:inline;overflow:visible;enable-background:accumulate;font-family:Andale Mono;-inkscape-font-specification:Andale Mono" />
    <path
       d="M 14.53,33.27 A 5,5 0 0 0 21.64,40.3 C 21.64,40.3 21.64,40.3 21.66,40.28 27.32,34.62 36.32,34.57 42.02,40.12 A 5,5 0 1 0 49.01,32.97 C 39.45,23.68 24.03,23.77 14.59,33.21 14.58,33.21 14.55,33.24 14.53,33.27 z"
       id="path3604"
       style="font-size:medium;font-style:normal;font-variant:normal;font-weight:normal;font-stretch:normal;text-indent:0;text-align:start;text-decoration:none;line-height:normal;letter-spacing:normal;word-spacing:normal;text-transform:none;direction:ltr;block-progression:tb;writing-mode:lr-tb;text-anchor:start;color:#000000;fill:#000000;fill-opacity:1;stroke:none;stroke-width:10;marker:none;visibility:visible;display:inline;overflow:visible;enable-background:accumulate;font-family:Andale Mono;-inkscape-font-specification:Andale Mono" />
  </g>
</svg>
