<?xml version="1.0" encoding="UTF-8" standalone="no"?>
<!-- Created with Inkscape (http://www.inkscape.org/) -->

<svg
   xmlns:dc="http://purl.org/dc/elements/1.1/"
   xmlns:cc="http://creativecommons.org/ns#"
   xmlns:rdf="http://www.w3.org/1999/02/22-rdf-syntax-ns#"
   xmlns:svg="http://www.w3.org/2000/svg"
   xmlns="http://www.w3.org/2000/svg"
   xmlns:sodipodi="http://sodipodi.sourceforge.net/DTD/sodipodi-0.dtd"
   xmlns:inkscape="http://www.inkscape.org/namespaces/inkscape"
   width="400"
   height="53"
   id="svg2"
   sodipodi:version="0.32"
   inkscape:version="0.47 r22583"
   version="1.0"
   sodipodi:docname="browser_chrome.svg"
   inkscape:output_extension="org.inkscape.output.svg.inkscape"
   ws-layout="scale-3-h">
  <defs
     id="defs4">
    <inkscape:perspective
       sodipodi:type="inkscape:persp3d"
       inkscape:vp_x="0 : 526.2 : 1"
       inkscape:vp_y="0 : 1000 : 0"
       inkscape:vp_z="744.1 : 526.2 : 1"
       inkscape:persp3d-origin="372 : 350.8 : 1"
       id="perspective10" />
    <inkscape:perspective
       id="perspective2894"
       inkscape:persp3d-origin="0.5 : 0.3333 : 1"
       inkscape:vp_z="1 : 0.5 : 1"
       inkscape:vp_y="0 : 1000 : 0"
       inkscape:vp_x="0 : 0.5 : 1"
       sodipodi:type="inkscape:persp3d" />
  </defs>
  <sodipodi:namedview
     id="base"
     pagecolor="#ffffff"
     bordercolor="#666666"
     borderopacity="1.0"
     inkscape:pageopacity="0.0"
     inkscape:pageshadow="2"
     inkscape:zoom="32"
     inkscape:cx="317"
     inkscape:cy="20.17"
     inkscape:document-units="px"
     inkscape:current-layer="layer1"
     showgrid="true"
     objecttolerance="1"
     gridtolerance="8"
     inkscape:window-width="1920"
     inkscape:window-height="1080"
     inkscape:window-x="0"
     inkscape:window-y="0"
     inkscape:window-maximized="0">
    <inkscape:grid
       type="xygrid"
       id="grid2383"
       visible="true"
       enabled="true"
       empspacing="4"
       dotted="true"
       snapvisiblegridlinesonly="true" />
  </sodipodi:namedview>
  <metadata
     id="metadata7">
    <rdf:RDF>
      <cc:Work
         rdf:about="">
        <dc:format>image/svg+xml</dc:format>
        <dc:type
           rdf:resource="http://purl.org/dc/dcmitype/StillImage" />
        <dc:title />
      </cc:Work>
    </rdf:RDF>
  </metadata>
  <g
     inkscape:label="Calque 1"
     inkscape:groupmode="layer"
     id="layer1"
     transform="translate(-5.96e-8,1.252e-6)">
    <rect
       style="fill:#efebe7;fill-opacity:1;stroke:#000000;stroke-width:2;stroke-linecap:round;stroke-linejoin:round;stroke-miterlimit:4;stroke-opacity:1;stroke-dasharray:none"
       id="rect3159"
       width="398"
       height="51"
       x="1"
       y="1" />
    <rect
       style="fill:#ffffff;fill-opacity:1;stroke:#000000;stroke-width:2;stroke-linecap:round;stroke-linejoin:round;stroke-miterlimit:4;stroke-opacity:1;stroke-dasharray:none"
       id="rect3169"
       width="216"
       height="19"
       x="90"
       y="26" />
    <rect
       style="fill:#ffffff;fill-opacity:1;stroke:#000000;stroke-width:2;stroke-linecap:butt;stroke-linejoin:miter;stroke-miterlimit:4;stroke-opacity:1;stroke-dasharray:none"
       id="rect3281"
       width="76"
       height="16"
       x="317"
       y="28"
       ry="8" />
    <path
       style="fill:none;stroke:#000000;stroke-width:3;stroke-linecap:round;stroke-linejoin:round;stroke-miterlimit:4;stroke-opacity:1;stroke-dasharray:none"
       d="M 327.3,38.26 329.3,40.26 327.3,38.26 z"
       id="rect3166"
       sodipodi:nodetypes="ccc" />
    <path
       style="fill:#ffffff;fill-opacity:1;stroke:#000000;stroke-width:1;stroke-linecap:round;stroke-linejoin:round;stroke-miterlimit:2.6667;stroke-opacity:1;stroke-dasharray:none;stroke-dashoffset:0"
       d="M 7.5,34.43 14.24,41.5 14.24,37.19 21.5,37.19 21.5,31.81 14.24,31.81 14.24,27.5 7.5,34.43 z"
       id="icon"
       inkscape:label=""
       sodipodi:nodetypes="cccccccc" />
    <path
       style="fill:#ffffff;fill-opacity:1;stroke:#000000;stroke-width:1;stroke-linecap:round;stroke-linejoin:round;stroke-miterlimit:2.6667;stroke-opacity:1;stroke-dasharray:none;stroke-dashoffset:0"
       d="M 42.1,34.43 35.36,41.5 35.36,37.19 28.1,37.19 28.1,31.81 35.36,31.81 35.36,27.5 42.1,34.43 z"
       id="path3386"
       inkscape:label=""
       sodipodi:nodetypes="cccccccc" />
    <path
       id="path3195"
       style="fill:#ffffff;fill-opacity:1;stroke:#000000;stroke-width:1;stroke-linecap:round;stroke-linejoin:round;stroke-miterlimit:2.6667;stroke-opacity:1;stroke-dasharray:none;stroke-dashoffset:0"
       d="M 76.3,28.5 70.3,33.3 71.96,33.3 71.96,40.5 80.63,40.5 80.63,33.3 82.3,33.3 76.3,28.5 z M 75.1,35.51 77.5,35.51 77.5,40.5 75.1,40.5 75.1,35.51 z" />
    <path
       style="fill:none;stroke:#000000;stroke-width:2;stroke-linecap:round;stroke-linejoin:round;stroke-miterlimit:4;stroke-opacity:1;stroke-dasharray:none"
       d="M 328,35.5 C 328,37.43 326.4,39 324.5,39 322.6,39 321,37.43 321,35.5 321,33.58 322.6,32 324.5,32 326.4,32 328,33.58 328,35.5 z"
       id="path3181" />
    <path
       style="fill:none;stroke:#000000;stroke-width:1;stroke-linecap:round;stroke-linejoin:round;stroke-miterlimit:4;stroke-opacity:1;stroke-dasharray:none;stroke-dashoffset:0"
       d="M 61.5,28.5 59.68,30.35 C 58.59,29.32 57.12,28.68 55.5,28.68 52.19,28.68 49.5,31.33 49.5,34.59 49.5,37.85 52.19,40.5 55.5,40.5 56.33,40.5 57.12,40.34 57.84,40.04 58.55,39.74 59.2,39.3 59.74,38.77 60.28,38.23 60.73,37.6 61.03,36.89 61.34,36.19 59.09,35.57 58.9,36.01 58.72,36.44 58.44,36.83 58.11,37.16 57.78,37.49 57.38,37.76 56.94,37.94 56.49,38.13 56.01,38.23 55.5,38.23 53.46,38.23 51.81,36.6 51.81,34.59 51.81,32.59 53.46,30.96 55.5,30.96 56.5,30.96 57.41,31.35 58.07,31.99 L 55.96,34.14 61.5,34.14 61.5,28.5 z"
       id="path2384" />
    <rect
       style="fill:none;stroke:#000000;stroke-width:2.0005;stroke-linecap:round;stroke-linejoin:round;stroke-miterlimit:4;stroke-opacity:1;stroke-dasharray:none;stroke-dashoffset:0"
       id="ws-title"
       width="384"
       height="15"
       x="7"
       y="5"
       inkscape:label="#rect2876" />
    <rect
       style="fill:none;stroke:#000000;stroke-width:1.9998;stroke-linecap:round;stroke-linejoin:round;stroke-miterlimit:4;stroke-opacity:1;stroke-dasharray:none;stroke-dashoffset:0"
       id="ws-address"
       width="207"
       height="15"
       x="96"
       y="28"
       inkscape:label="#rect2878" />
    <rect
       inkscape:label="#rect2878"
       y="28"
       x="104"
       height="15"
       width="192"
       id="ws-guides"
       style="fill:none;stroke:#000000;stroke-width:1.9997;stroke-linecap:round;stroke-linejoin:round;stroke-miterlimit:4;stroke-opacity:1;stroke-dasharray:none;stroke-dashoffset:0" />
  </g>
</svg>
